<?xml version="1.0" encoding="utf-8"?>
<!-- Generator: Adobe Illustrator 20.0.0, SVG Export Plug-In . SVG Version: 6.00 Build 0)  -->
<svg version="1.1" id="Layer_1" xmlns="http://www.w3.org/2000/svg" xmlns:xlink="http://www.w3.org/1999/xlink" x="0px" y="0px"
	 width="969.589px" height="92.472px" viewBox="0 0 969.589 92.472" enable-background="new 0 0 969.589 92.472"
	 xml:space="preserve">
<g>
	<g>
		<path fill="#222222" d="M43.969,34.236l2.268-13.716l2.214,13.716h11.124l4.482-27.378h-8.91l-2.268,15.39l-2.214-15.39h-8.856
			l-2.214,15.39l-2.268-15.39h-8.91l4.482,27.378H43.969z M74.478,13.716h2.16v20.52h8.91V10.314c0-2.303-1.477-3.456-4.428-3.456
			h-6.642V0h-8.91v34.236h8.91V13.716z M92.243,34.236h11.124c2.951,0,4.428-1.134,4.428-3.402v-20.52
			c0-2.303-1.477-3.456-4.428-3.456H92.243c-2.952,0-4.428,1.153-4.428,3.456v20.52C87.816,33.102,89.291,34.236,92.243,34.236z
			 M96.725,13.716h2.16v13.716h-2.16V13.716z M128.53,6.858h-8.91v6.858h8.91V6.858z M128.53,15.39h-8.91v18.846h8.91V15.39z
			 M135.172,34.236h11.124c2.951,0.035,4.428-1.098,4.428-3.402V20.52c0-2.268-1.477-3.402-4.428-3.402h-6.642v-3.402h2.16v1.674
			h8.91v-5.076c0-2.303-1.477-3.456-4.428-3.456h-11.124c-2.952,0-4.428,1.153-4.428,3.456V20.52c0,2.304,1.476,3.456,4.428,3.456
			h6.642v3.456h-2.16v-1.728h-8.91v5.13C130.744,33.102,132.219,34.236,135.172,34.236z M30.909,42.266
			c0-3.563-2.284-5.346-6.85-5.346H6.85c-4.567,0-6.85,1.783-6.85,5.346v37.007h13.784V63.401h3.341v23.808
			c0,1.448,0.807,2.728,2.423,3.843c1.448,0.946,2.951,1.42,4.511,1.42h24.059V81.946H30.909V42.266z M17.125,52.792h-3.341v-5.263
			h3.341V52.792z M51.541,68.747H48.2V36.919H34.416V74.01c0,3.509,2.283,5.263,6.85,5.263h17.209c4.566,0,6.85-1.754,6.85-5.263
			V36.919H51.541V68.747z M92.891,36.919H75.683c-4.567,0-6.85,1.783-6.85,5.346v15.788c0,3.565,2.283,5.346,6.85,5.346h10.275
			v5.346h-3.341v-2.673H68.832v7.936c0,3.509,2.283,5.263,6.85,5.263h17.209c4.566,0.055,6.85-1.698,6.85-5.263V58.054
			c0-3.508-2.284-5.263-6.85-5.263H82.616v-5.263h3.341v2.59h13.784v-7.852C99.741,38.702,97.457,36.919,92.891,36.919z
			 M119.288,36.919h-13.784v2.673h-3.425v10.526h3.425V74.01c0,3.509,2.283,5.263,6.85,5.263h17.209
			c4.566,0.055,6.85-1.698,6.85-5.263V52.792h-13.7v15.956h-3.425V50.118h17.125V39.593h-17.125V36.919z M163.98,36.919h-24.059
			v42.353h13.784V63.401h3.341v15.872h13.784V62.148c0-1.726-1.142-3.091-3.425-4.093c2.283-0.946,3.425-2.31,3.425-4.093V42.266
			C170.83,38.702,168.546,36.919,163.98,36.919z M157.046,52.792h-3.341v-5.263h3.341V52.792z M198.396,36.919h-17.209
			c-4.567,0-6.85,1.783-6.85,5.346v7.852h13.784v-2.59h3.341v5.263h-10.275c-4.567,0.056-6.85,1.81-6.85,5.263V74.01
			c0,3.509,2.283,5.263,6.85,5.263h24.059V42.266C205.246,38.702,202.962,36.919,198.396,36.919z M191.463,68.747h-3.341v-5.346
			h3.341V68.747z M222.537,36.919h-13.784v42.353h22.722V68.747h-8.938V36.919z M235.569,79.273h13.784V50.118h-13.784V79.273z
			 M235.569,47.529h13.784V36.919h-13.784V47.529z M276.836,36.919h-17.209c-4.567,0-6.85,1.783-6.85,5.346v7.852h13.784v-2.59
			h3.341v5.263h-10.275c-4.567,0.056-6.85,1.81-6.85,5.263V74.01c0,3.509,2.283,5.263,6.85,5.263h24.059V42.266
			C283.686,38.702,281.402,36.919,276.836,36.919z M269.902,68.747h-3.341v-5.346h3.341V68.747z M287.277,29.15h6.85v2.673h-6.85
			v5.263h6.85c1.671,0,3.202-0.529,4.595-1.587c1.559-1.003,2.339-2.227,2.339-3.676V18.625h-13.784V29.15z M329.045,36.919h-17.209
			c-4.567,0-6.85,1.783-6.85,5.346v15.788c0,3.565,2.283,5.346,6.85,5.346h10.275v5.346h-3.341v-2.673h-13.784v7.936
			c0,3.509,2.283,5.263,6.85,5.263h17.209c4.566,0.055,6.85-1.698,6.85-5.263V58.054c0-3.508-2.284-5.263-6.85-5.263H318.77v-5.263
			h3.341v2.59h13.784v-7.852C335.895,38.702,333.611,36.919,329.045,36.919z M382.758,38.339c-1.449-0.946-2.953-1.42-4.511-1.42
			c-4.567,0-7.992,0.891-10.275,2.673v-2.673h-13.784v42.353h13.784V47.529h3.341v31.744h13.784V42.266
			C385.097,40.707,384.316,39.398,382.758,38.339z M412.663,36.919h-17.209c-4.567,0-6.85,1.783-6.85,5.346V74.01
			c0,3.509,2.283,5.263,6.85,5.263h17.209c4.566,0,6.85-1.754,6.85-5.263V42.266C419.513,38.702,417.229,36.919,412.663,36.919z
			 M405.729,68.747h-3.341V47.529h3.341V68.747z M423.02,79.273h13.784V68.747H423.02V79.273z M440.228,79.273h13.784V36.919
			h-13.784V79.273z M496.28,36.919h-24.059v42.353h13.784V63.401h10.275c4.566,0,6.85-1.782,6.85-5.346V42.266
			C503.13,38.702,500.846,36.919,496.28,36.919z M489.347,52.792h-3.341v-5.263h3.341V52.792z M530.697,36.919h-17.209
			c-4.567,0-6.85,1.783-6.85,5.346V74.01c0,3.509,2.283,5.263,6.85,5.263h17.209c4.566,0,6.85-1.754,6.85-5.263V42.266
			C537.547,38.702,535.262,36.919,530.697,36.919z M523.763,68.747h-3.342V47.529h3.342V68.747z M554.838,36.919h-13.784v42.353
			h22.722V68.747h-8.939V36.919z M567.869,47.529h13.784V36.919h-13.784V47.529z M567.869,79.273h13.784V50.118h-13.784V79.273z
			 M601.117,36.919h-13.784v2.673h-3.425v10.526h3.425V74.01c0,3.509,2.283,5.263,6.85,5.263h17.209
			c4.566,0.055,6.85-1.698,6.85-5.263V52.792h-13.7v15.956h-3.425V50.118h17.125V39.593h-17.125V36.919z M621.75,47.529h13.784
			V36.919H621.75V47.529z M621.75,79.273h13.784V50.118H621.75V79.273z M663.017,36.919h-17.209c-4.567,0-6.85,1.783-6.85,5.346
			V74.01c0,3.509,2.283,5.263,6.85,5.263h17.209c4.566,0,6.85-1.754,6.85-5.263V58.723h-13.784v10.024h-3.341V47.529h3.341v7.268
			h13.784V42.266C669.867,38.702,667.583,36.919,663.017,36.919z M697.433,36.919h-17.209c-4.567,0-6.85,1.783-6.85,5.346v7.852
			h13.784v-2.59h3.341v5.263h-10.275c-4.567,0.056-6.85,1.81-6.85,5.263V74.01c0,3.509,2.283,5.263,6.85,5.263h24.059V42.266
			C704.283,38.702,701.999,36.919,697.433,36.919z M690.499,68.747h-3.341v-5.346h3.341V68.747z M721.574,36.919h-13.784v42.353
			h22.722V68.747h-8.938V36.919z M773.45,36.919h-24.059v42.353h13.784V63.401h10.275c4.566,0,6.85-1.782,6.85-5.346V42.266
			C780.3,38.702,778.016,36.919,773.45,36.919z M766.516,52.792h-3.341v-5.263h3.341V52.792z M807.866,36.919h-17.209
			c-4.567,0-6.85,1.783-6.85,5.346v7.852h13.784v-2.59h3.341v5.263h-10.275c-4.567,0.056-6.85,1.81-6.85,5.263V74.01
			c0,3.509,2.283,5.263,6.85,5.263h24.059V42.266C814.716,38.702,812.432,36.919,807.866,36.919z M800.932,68.747h-3.341v-5.346
			h3.341V68.747z M842.282,36.919h-24.059v42.353h13.784V63.401h3.341v15.872h13.784V62.148c0-1.726-1.142-3.091-3.425-4.093
			c2.283-0.946,3.425-2.31,3.425-4.093V42.266C849.132,38.702,846.848,36.919,842.282,36.919z M835.349,52.792h-3.341v-5.263h3.341
			V52.792z M852.64,79.273h13.784V50.118H852.64V79.273z M852.64,47.529h13.784V36.919H852.64V47.529z M893.907,36.919h-17.209
			c-4.567,0-6.85,1.783-6.85,5.346v7.852h13.784v-2.59h3.341v5.263h-10.275c-4.567,0.056-6.85,1.81-6.85,5.263V74.01
			c0,3.509,2.283,5.263,6.85,5.263h24.059V42.266C900.757,38.702,898.472,36.919,893.907,36.919z M886.973,68.747h-3.341v-5.346
			h3.341V68.747z M928.323,36.919h-10.275V26.31h-13.784v52.963h13.784V47.529h3.341v31.744h13.784V42.266
			C935.173,38.702,932.889,36.919,928.323,36.919z M962.739,36.919H945.53c-4.567,0-6.85,1.783-6.85,5.346v7.852h13.784v-2.59h3.341
			v5.263H945.53c-4.567,0.056-6.85,1.81-6.85,5.263v8.02h13.784v-2.673h10.275c4.566,0,6.85-1.782,6.85-5.346V42.266
			C969.589,38.702,967.305,36.919,962.739,36.919z M938.68,79.273h13.784V68.747H938.68V79.273z"/>
	</g>
</g>
<g>
</g>
<g>
</g>
<g>
</g>
<g>
</g>
<g>
</g>
<g>
</g>
<g>
</g>
<g>
</g>
<g>
</g>
<g>
</g>
<g>
</g>
<g>
</g>
<g>
</g>
<g>
</g>
<g>
</g>
</svg>
