<?xml version="1.0" encoding="utf-8"?>
<!-- Generator: Adobe Illustrator 20.0.0, SVG Export Plug-In . SVG Version: 6.00 Build 0)  -->
<svg version="1.1" id="Layer_1" xmlns="http://www.w3.org/2000/svg" xmlns:xlink="http://www.w3.org/1999/xlink" x="0px" y="0px"
	 width="187px" height="179.058px" viewBox="0 0 187 179.058" enable-background="new 0 0 187 179.058" xml:space="preserve">
<path fill="#222222" d="M143.229,179.058c-10.745,0-14.229-6.559-14.229-12.644V126.69c0-9.225,7.146-12.632,14.155-12.632h21.611
	c7.083,0,14.233,3.408,14.233,12.632v15.368h-0.228c0.389,2,0.228,3.076,0.228,4.39v19.966c0,6.084-3.488,12.644-14.233,12.644
	H143.229z"/>
<rect x="107" y="114.058" fill="#222222" width="29" height="65"/>
<path fill="#222222" d="M78.618,179.058c-10.745,0-14.618-6.559-14.618-12.644V126.69c0-6.135,3.873-12.632,14.618-12.632h21.538
	c10.745,0,14.844,6.498,14.844,12.632v39.724c0,6.084-4.099,12.644-14.844,12.644H78.618z"/>
<path fill="#222222" d="M21,179.058v-32.61c0-1.314,0.149-2.39,0.538-4.39H21V126.69c0-6.135,3.799-12.632,14.544-12.632h21.538
	c10.745,0,14.918,6.498,14.918,12.632v19.758c0,1.495-0.541,2.61-0.9,3.61H72v29H21z"/>
<path fill="#222222" d="M149.19,122.058c-10.745,0-14.19-6.559-14.19-12.644V69.69c0-6.135,3.445-12.632,14.19-12.632h21.537
	c10.745,0,14.272,6.498,14.272,12.632v39.724c0,6.084-3.527,12.644-14.272,12.644H149.19z"/>
<path fill="#222222" d="M106.344,122C95.599,122,92,115.499,92,109.415V85.058h-5v-25h5v-3h29v3h21v49.356
	c0,5.121-2.254,8.071-4.24,9.645c-2.466,1.953-5.646,2.943-9.79,2.943L106.344,122z"/>
<path fill="#222222" d="M60.219,122.058c-10.745,0-14.219-6.559-14.219-12.644V69.69c0-6.135,3.474-12.632,14.219-12.632h21.537
	C92.501,57.058,96,63.556,96,69.69v39.724c0,6.084-3.499,12.644-14.244,12.644H60.219z"/>
<polygon fill="#222222" points="10.886,122.058 0.371,57.058 57.558,57.058 46.915,122.058 "/>
<rect x="154" y="20.058" fill="#222222" width="33" height="25"/>
<rect x="132" y="0.058" fill="#222222" width="29" height="65"/>
<path fill="#222222" d="M103.589,65C92.844,65,89,58.499,89,52.415V28.058h-4v-25h4v-3h29v3h22v49.356
	c0,5.121-2.509,8.071-4.496,9.645c-2.466,1.953-5.896,2.943-10.04,2.943L103.589,65z"/>
<path fill="#222222" d="M43,65.058v-65h29v0.496C74,0.183,76.558,0,79.052,0c3.126,0,6.226,0.927,9.024,2.754l0.229,0.06
	C91.888,5.248,94,8.755,94,12.69v52.368H43z"/>
<path fill="#222222" d="M14.634,65.058C3.889,65.058,0,58.499,0,52.415V32.448c0-1.453,0.25-2.39,0.596-4.39H0V12.69
	C0,6.556,3.889,0.058,14.634,0.058h21.538C46.917,0.058,51,6.556,51,12.69v52.368H14.634z"/>
<g>
	<g>
		<g>
			<path fill="#DBDBDB" d="M44.536,11.829c0-4.459-2.859-6.69-8.573-6.69H14.425c-5.716,0-8.573,2.231-8.573,6.69v9.826h17.251
				v-3.241h4.182v6.586h-12.86c-5.716,0.07-8.573,2.266-8.573,6.586v19.967c0,4.391,2.857,6.586,8.573,6.586h30.111V11.829z
				 M27.285,44.967h-4.182v-6.69h4.182V44.967z M70.359,58.139H87.61v-46.31c0-1.95-0.977-3.589-2.927-4.913
				c-1.813-1.184-3.695-1.777-5.646-1.777c-5.716,0-10.003,1.116-12.86,3.345V5.138H48.926v53h17.251V18.415h4.182V58.139z
				 M112.074,5.138H94.823v3.345h-4.287v13.172h4.287v29.898c0,4.391,2.857,6.586,8.573,6.586h21.538
				c5.714,0.069,8.573-2.125,8.573-6.586V25.001h-17.146v19.967h-4.287V21.655h21.433V8.484h-21.433V5.138z M155.149,21.655h-17.251
				v36.484h17.251V21.655z M155.149,5.138h-17.251v13.276h17.251V5.138z M159.435,25.001v13.276h21.433V25.001H159.435z
				 M56.873,119.138H35.336c-5.716,0-8.573,2.231-8.573,6.69v9.826h17.251v-3.241h4.182v6.586h-12.86
				c-5.716,0-8.573,2.195-8.573,6.586v26.552h38.684v-16.517H48.195v3.345h-4.182v-6.69h12.86c5.714-0.069,8.573-2.3,8.573-6.69
				v-19.758C65.447,121.37,62.588,119.138,56.873,119.138z M99.947,119.138H78.41c-5.716,0-8.573,2.231-8.573,6.69v39.724
				c0,4.391,2.857,6.586,8.573,6.586h21.538c5.714,0,8.573-2.195,8.573-6.586v-39.724
				C108.521,121.37,105.662,119.138,99.947,119.138z M91.27,158.967h-4.182v-26.553h4.182V158.967z M112.911,172.139h17.251v-53
				h-17.251V172.139z M164.558,119.138h-21.538c-5.716,0.07-8.573,2.3-8.573,6.69v39.724c0,4.391,2.857,6.586,8.573,6.586h21.538
				c5.714,0,8.573-2.195,8.573-6.586v-19.967c0-4.391-2.859-6.586-8.573-6.586h-12.86v-6.586h4.182v3.241h17.251v-9.826
				C173.132,121.438,170.273,119.209,164.558,119.138z M155.881,152.277v6.69h-4.182v-6.69H155.881z"/>
		</g>
	</g>
	<g>
		<path fill="#FFFFFF" d="M50.286,62.139H33.035l-4.287,29.793l-4.391-29.793H7.211l8.573,53h25.824L50.286,62.139z"/>
		<path fill="#FFFFFF" d="M72.87,101.967h-4.182V75.415h4.182V101.967z M90.121,68.829c0-4.459-2.859-6.69-8.573-6.69H60.01
			c-5.716,0-8.573,2.231-8.573,6.69v39.724c0,4.391,2.857,6.586,8.573,6.586h21.538c5.714,0,8.573-2.195,8.573-6.586V68.829z"/>
		<path fill="#FFFFFF" d="M136.018,82.001h-17.147v19.967h-4.287V78.655h21.433V65.484h-21.433v-3.345H97.333v3.345h-4.287v13.172
			h4.287v29.898c0,4.391,2.857,6.586,8.573,6.586h21.538c5.714,0.069,8.573-2.125,8.573-6.586V82.001z"/>
		<path fill="#FFFFFF" d="M161.841,82.001h-4.182v-6.586h4.182V82.001z M179.093,98.622h-17.251v3.345h-4.182v-6.69h21.433V68.829
			c0-4.459-2.859-6.69-8.573-6.69h-21.538c-5.716,0-8.573,2.231-8.573,6.69v39.724c0,4.391,2.857,6.586,8.573,6.586h21.538
			c5.714,0,8.573-2.195,8.573-6.586V98.622z"/>
	</g>
</g>
<g>
</g>
<g>
</g>
<g>
</g>
<g>
</g>
<g>
</g>
<g>
</g>
<g>
</g>
<g>
</g>
<g>
</g>
<g>
</g>
<g>
</g>
<g>
</g>
<g>
</g>
<g>
</g>
<g>
</g>
</svg>
