<?xml version="1.0" encoding="utf-8"?>
<!-- Generator: Adobe Illustrator 20.0.0, SVG Export Plug-In . SVG Version: 6.00 Build 0)  -->
<svg version="1.1" id="Layer_1" xmlns="http://www.w3.org/2000/svg" xmlns:xlink="http://www.w3.org/1999/xlink" x="0px" y="0px"
	 width="643px" height="255px" viewBox="0 0 643 255" enable-background="new 0 0 643 255" xml:space="preserve">
<g>
	<path fill="#222222" d="M582.812,255c-4.92,0-9.657-1.623-14.08-4.521l-0.123-0.189c-7.152-4.948-8.61-10.888-8.61-14.936V226h-37
		V119h46v1.473c4-0.991,8.415-1.479,13.68-1.479c21.083,0,22.32,14.941,22.32,19.52V216h38v39H582.812z"/>
	<path fill="#222222" d="M471.686,226C457.458,226,449,219.024,449,206.914v-68.4c0-4.579,1.603-19.514,22.686-19.514h36.983
		C529.752,119,531,133.935,531,138.514v68.4c0,4.537-1.248,19.086-22.331,19.086H471.686z"/>
	<path fill="#222222" d="M434.606,226H397.72c-14.227,0-22.72-6.976-22.72-19.086V163h-7v-38h7v-6h46v6h36v81.914
		c0,7.881-3.374,12.384-6.382,14.772c-3.818,3.032-8.989,4.444-15.576,4.444C435.04,226.13,434.606,226,434.606,226z"/>
	<path fill="#222222" d="M355.794,226h-36.887C304.68,226,296,219.024,296,206.914V163h-7v-38h7v-6h46v6h37v81.914
		c0,7.881-3.78,12.384-6.789,14.772c-3.818,3.032-9.192,4.444-15.78,4.444C356.431,226.13,355.794,226,355.794,226z"/>
	<path fill="#222222" d="M240.096,226C225.869,226,217,219.024,217,206.914V119h83v87.914c0,4.537-1.838,19.086-22.92,19.086
		H240.096z"/>
	<path fill="#222222" d="M166.132,226c-7.96,0-14.199-1.935-18.137-6.001c-2.288-2.362-4.995-6.459-4.995-13.2v-68.228
		c0-6.88,2.877-11.148,5.214-13.522c3.954-4.016,10.118-6.049,17.918-6.049H180V96h46v130H166.132z"/>
	<path fill="#222222" d="M360.39,136c-4.919,0-9.656-1.72-14.08-4.619l-0.41-0.236c-7.154-4.948-8.9-10.937-8.9-14.984V107h-36V0
		h59.39C381.473,0,383,14.741,383,19.32V43.8c0,3.574-0.94,6.803-2.714,9.54c1.773,2.737,2.714,5.966,2.714,9.54V97h37v39H360.39z"
		/>
	<path fill="#222222" d="M249.443,107C235.215,107,227,99.83,227,87.72v-68.4C227,14.741,228.36,0,249.443,0h36.983
		C307.509,0,309,14.741,309,19.32v68.4c0,4.537-1.491,19.28-22.574,19.28H249.443z"/>
	<path fill="#222222" d="M175.6,107.06c-14.228,0-22.6-7.23-22.6-19.34V44h-8V6h8V0h45v6h37v81.72
		c0,7.881-3.495,12.383-6.504,14.772c-3.818,3.033-8.988,4.57-15.577,4.57C212.919,107.062,175.6,107.06,175.6,107.06z"/>
	<path fill="#222222" d="M96.666,107C82.438,107,74,99.83,74,87.72v-68.4C74,14.741,75.583,0,96.666,0h36.983
		C154.732,0,156,14.741,156,19.32v68.4c0,4.537-1.268,19.28-22.351,19.28H96.666z"/>
	<path fill="#222222" d="M0,107V0h59.685C80.768,0,82,14.741,82,19.32v34.02C82,57.919,80.768,73,59.685,73H46v34H0z"/>
</g>
<g>
	<g>
		<path fill="#FFFFFF" d="M59.685,7.8H7.981v91.26h29.622v-34.2h22.082c9.812,0,14.721-3.839,14.721-11.52V19.32
			C74.407,11.642,69.498,7.8,59.685,7.8z M44.784,42h-7.181V30.66h7.181V42z M133.649,7.8H96.666
			c-9.815,0-14.721,3.842-14.721,11.52v68.4c0,7.56,4.906,11.34,14.721,11.34h36.983c9.812,0,14.721-3.78,14.721-11.34v-17.1
			h-29.622v5.76h-7.181V64.86h36.804V19.32C148.371,11.642,143.462,7.8,133.649,7.8z M118.748,42h-7.181V30.66h7.181V42z
			 M227.182,42h-29.443v34.38h-7.361V36.24h36.804V13.56h-36.804V7.8h-29.622v5.76h-7.361v22.68h7.361v51.48
			c0,7.56,4.906,11.34,14.721,11.34h36.983c9.812,0.118,14.721-3.659,14.721-11.34V42z M249.443,99.06h36.983
			c9.812,0,14.721-3.78,14.721-11.34v-17.1h-29.622v5.76h-7.181V64.86h36.804V19.32c0-7.678-4.909-11.52-14.721-11.52h-36.983
			c-9.815,0-14.721,3.842-14.721,11.52v68.4C234.721,95.28,239.628,99.06,249.443,99.06z M264.344,30.66h7.181V42h-7.181V30.66z
			 M188.214,126.994h-22.082c-9.936,0-14.842,3.842-14.721,11.52v68.4c-0.241,7.56,4.668,11.34,14.721,11.34h51.705v-114.12h-29.622
			V126.994z M188.214,195.574h-7.181v-45.72h7.181V195.574z M262.178,195.574h-7.181v-68.58h-29.622v79.92
			c0,7.56,4.906,11.34,14.721,11.34h36.983c9.812,0,14.721-3.78,14.721-11.34v-79.92h-29.622V195.574z M333.808,126.994h-29.622
			v5.76h-7.361v22.68h7.361v51.48c0,7.56,4.906,11.34,14.721,11.34h36.983c9.812,0.118,14.721-3.659,14.721-11.34v-45.72h-29.443
			v34.38h-7.361v-40.14h36.804v-22.68h-36.804V126.994z M412.621,126.994h-0.527V104.82h-36.983V62.88
			c0-4.559-2.455-7.74-7.361-9.54c4.906-1.8,7.361-4.978,7.361-9.54V19.32c0-7.678-4.909-11.52-14.721-11.52h-51.705v91.26h29.622
			v-34.2h7.181v51.3c0,3.119,1.734,5.878,5.206,8.28c3.111,2.039,6.343,3.06,9.695,3.06h22.609v5.254h-7.361v22.68h7.361v51.48
			c0,7.56,4.906,11.34,14.721,11.34h36.983c9.812,0.118,14.721-3.659,14.721-11.34v-45.72h-29.443v34.38h-7.361v-40.14h36.804
			v-22.68h-36.804V126.994z M345.489,42h-7.181V30.66h7.181V42z M508.669,126.994h-36.983c-9.815,0-14.721,3.842-14.721,11.52v68.4
			c0,7.56,4.906,11.34,14.721,11.34h36.983c9.812,0,14.721-3.78,14.721-11.34v-68.4C523.39,130.836,518.481,126.994,508.669,126.994
			z M493.768,195.574h-7.181v-45.72h7.181V195.574z M597.354,224.014v-85.5c0-7.678-4.909-11.52-14.721-11.52
			c-9.815,0-17.176,1.921-22.082,5.76v-5.76h-29.622v91.26h29.622v-68.4h7.181v68.4h0.18v17.1c0,3.119,1.734,5.878,5.206,8.28
			c3.111,2.039,6.342,3.06,9.695,3.06h51.705v-22.68H597.354z"/>
	</g>
</g>
<g>
</g>
<g>
</g>
<g>
</g>
<g>
</g>
<g>
</g>
<g>
</g>
<g>
</g>
<g>
</g>
<g>
</g>
<g>
</g>
<g>
</g>
<g>
</g>
<g>
</g>
<g>
</g>
<g>
</g>
</svg>
