<?xml version="1.0" encoding="utf-8"?>
<!-- Generator: Adobe Illustrator 20.0.0, SVG Export Plug-In . SVG Version: 6.00 Build 0)  -->
<svg version="1.1" id="Layer_1" xmlns="http://www.w3.org/2000/svg" xmlns:xlink="http://www.w3.org/1999/xlink" x="0px" y="0px"
	 width="385px" height="237px" viewBox="0 0 385 237" enable-background="new 0 0 385 237" xml:space="preserve">
<path fill="#222222" d="M362.453,208h-37.015c-14.26,0-22.438-6.901-22.438-19.012V146h-8v-39h8v-6h45v6h37v81.988
	c0,7.888-3.438,12.392-6.457,14.781c-3.824,3.026-9.03,4.398-15.63,4.398L362.453,208z"/>
<path fill="#222222" d="M224,208V101h45v1.556c4-0.996,9.016-1.488,14.312-1.488c4.923,0,9.745,1.467,14.177,4.361l0.04,0.08
	c7.067,4.797,8.47,10.848,8.47,15.079V208H224z"/>
<path fill="#222222" d="M172.136,208C157.877,208,149,201.099,149,188.988V101h83v87.988c0,12.11-8.493,19.012-22.753,19.012
	H172.136z"/>
<path fill="#222222" d="M135.028,237c-4.926,0-9.671-1.583-14.103-4.479l-0.202-0.167c-7.178-4.946-8.722-10.873-8.722-14.926V208
	H75V101h83v97h37v39H135.028z"/>
<path fill="#222222" d="M245.894,107C231.634,107,223,99.775,223,87.665v-68.4C223,14.686,224.764,0,245.894,0h37.11
	C304.134,0,306,14.686,306,19.265V107H245.894z"/>
<path fill="#222222" d="M171.674,107C157.415,107,149,99.775,149,87.665v-68.4C149,7.042,157.415,0,171.674,0h37.111
	C229.915,0,232,14.686,232,19.265v68.4c0,12.11-8.955,19.335-23.215,19.335H171.674z"/>
<path fill="#222222" d="M75,107V0h59.566C155.696,0,157,14.686,157,19.265v25.2c0,2.278-0.483,5.604-2.694,8.875
	c2.212,3.266,2.694,6.538,2.694,8.765V107H75z"/>
<path fill="#222222" d="M0,135V97h2.357C1.197,94,0,91.404,0,87.55V19.265C0,7.042,8.977,0,23.236,0H83v116.105
	C83,128.215,74.606,135,60.347,135H0z"/>
<g>
	<g>
		<path fill="#FFFFFF" d="M8.464,19.265v68.4c-0.242,7.56,4.684,11.34,14.772,11.34h22.158v5.76H8.464v22.68h51.883
			c9.846,0,14.772-3.78,14.772-11.34V7.745H23.236C13.387,7.745,8.464,11.587,8.464,19.265z M38.189,30.605h7.206v45.72h-7.206
			V30.605z M112.408,64.805h7.206v34.2h29.724v-36.9c0-3.718-2.463-6.66-7.386-8.82c4.923-2.039,7.386-4.978,7.386-8.82v-25.2
			c0-7.678-4.926-11.52-14.772-11.52H82.683v91.26h29.725V64.805z M112.408,30.605h7.206v11.34h-7.206V30.605z M171.674,99.005
			h37.111c9.846,0,14.772-3.78,14.772-11.34v-17.1h-29.725v5.76h-7.206v-11.52h36.93v-45.54c0-7.678-4.926-11.52-14.772-11.52
			h-37.111c-9.849,0-14.772,3.842-14.772,11.52v68.4C156.902,95.225,161.825,99.005,171.674,99.005z M186.627,30.605h7.206v11.34
			h-7.206V30.605z M245.894,99.005h51.883v-57.06h-29.725v34.38h-7.206v-45.72h7.206v4.14h29.725v-15.48
			c0-7.678-4.926-11.52-14.772-11.52h-37.111c-9.849,0-14.772,3.842-14.772,11.52v68.4
			C231.121,95.225,236.044,99.005,245.894,99.005z M149.8,109.068h-29.725v34.2h-7.206v-34.2H83.145v91.26h29.725v-34.2h7.206v51.3
			c0,3.119,1.74,5.878,5.224,8.28c3.122,2.039,6.364,3.06,9.728,3.06h51.883v-22.68H149.8V109.068z M194.295,177.648h-7.206v-68.58
			h-29.725v79.92c0,7.56,4.923,11.34,14.772,11.34h37.111c9.846,0,14.772-3.78,14.772-11.34v-79.92h-29.725V177.648z
			 M293.194,112.128c-3.125-2.039-6.367-3.06-9.728-3.06c-9.849,0-17.235,1.921-22.158,5.76v-5.76h-29.724v91.26h29.724v-68.4h7.206
			v68.4h29.725v-79.74C298.238,117.23,296.555,114.409,293.194,112.128z M377.321,137.508v-22.68h-36.931v-5.76h-29.725v5.76h-7.386
			v22.68h7.386v51.48c0,7.56,4.923,11.34,14.772,11.34h37.111c9.846,0.118,14.772-3.659,14.772-11.34v-45.72h-29.544v34.38h-7.386
			v-40.14H377.321z"/>
	</g>
</g>
<g>
</g>
<g>
</g>
<g>
</g>
<g>
</g>
<g>
</g>
<g>
</g>
<g>
</g>
<g>
</g>
<g>
</g>
<g>
</g>
<g>
</g>
<g>
</g>
<g>
</g>
<g>
</g>
<g>
</g>
</svg>
