<?xml version="1.0" encoding="utf-8"?>
<!-- Generator: Adobe Illustrator 20.0.0, SVG Export Plug-In . SVG Version: 6.00 Build 0)  -->
<svg version="1.1" id="Layer_1" xmlns="http://www.w3.org/2000/svg" xmlns:xlink="http://www.w3.org/1999/xlink" x="0px" y="0px"
	 width="677px" height="236px" viewBox="0 0 677 236" enable-background="new 0 0 677 236" xml:space="preserve">
<path fill="#222222" d="M595,207V100h45v1.556c5-0.996,9.065-1.488,14.361-1.488c4.924,0,9.77,1.467,14.202,4.361l0.002,0.079
	c7.068,4.796,8.435,10.848,8.435,15.08V207H595z"/>
<path fill="#222222" d="M543.234,207c-14.26,0-23.234-6.901-23.234-19.012v-68.4c0-4.579,2.104-19.588,23.234-19.588h37.11
	c21.13,0,22.655,15.009,22.655,19.588v68.4c0,12.11-8.396,19.012-22.655,19.012H543.234z"/>
<path fill="#222222" d="M506.03,207h-37.015c-14.26,0-23.016-6.901-23.016-19.012V163h2.297c-1.348-3-2.297-5.87-2.297-9.392
	v-34.021c0-12.223,8.756-19.588,23.016-19.588h37.11c21.13,0,22.874,15.009,22.874,19.588V145h-2.106
	c1.315,2,2.106,5.161,2.106,8.608v34.38c0,7.888-3.649,12.392-6.668,14.781c-3.824,3.026-9.136,4.398-15.735,4.398L506.03,207z"/>
<rect x="409" y="100" fill="#222222" width="46" height="107"/>
<path fill="#222222" d="M394.798,236c-4.926,0-9.671-1.583-14.104-4.478l-0.087-0.169c-7.178-4.947-8.607-10.873-8.607-14.925V207
	h-37V100h59.798c14.259,0,23.202,7.365,23.202,19.588v24.48c0,3.574-0.942,6.804-2.719,9.54c1.776,2.736,2.719,5.966,2.719,9.54V197
	h37v39H394.798z"/>
<path fill="#222222" d="M261,207V100h59.579C341.708,100,343,115.009,343,119.588v25.2c0,2.278-0.483,5.604-2.694,8.875
	c2.213,3.266,2.694,6.537,2.694,8.765V207H261z"/>
<path fill="#222222" d="M209.249,207C194.989,207,186,200.099,186,187.988v-68.4c0-12.223,8.989-19.588,23.249-19.588h37.111
	c21.13,0,22.641,15.009,22.641,19.588v68.4c0,12.11-8.381,19.012-22.641,19.012H209.249z"/>
<path fill="#222222" d="M172.319,236c-4.926,0-9.671-1.583-14.103-4.479l-0.348-0.167C150.69,226.406,149,220.48,149,216.428V207H75
	V100h46v1.315c4-0.839,8.627-1.247,14.093-1.247c5.287,0,9.941,1.409,13.842,4.132c2.604-1.532,5.461-2.615,8.581-3.237
	c1.881-0.424,5.278-0.895,14.45-0.895c4.924,0,9.664,1.467,14.097,4.361l0.212,0.114c7.176,4.949,8.725,10.913,8.725,15.045V197h37
	v39H172.319z"/>
<path fill="#222222" d="M329.807,107.005c-14.259,0-22.807-7.23-22.807-19.34V44h-7V6h7V0h46v6h37v81.665
	c0,7.888-3.736,12.392-6.755,14.781c-3.824,3.026-9.196,4.561-15.795,4.561L329.807,107.005z"/>
<path fill="#222222" d="M250.765,107.005c-14.259,0-22.765-7.23-22.765-19.34V44h-7V6h7V0h46v6h37v81.665
	c0,7.888-3.778,12.392-6.797,14.781c-3.824,3.027-9.196,4.561-15.795,4.561C288.407,107.007,250.765,107.005,250.765,107.005z"/>
<path fill="#222222" d="M171.674,107C157.415,107,149,99.775,149,87.665v-68.4C149,7.042,157.415,0,171.674,0h37.111
	C229.916,0,232,14.686,232,19.265v68.4c0,12.11-8.956,19.335-23.215,19.335H171.674z"/>
<path fill="#222222" d="M97.456,107C83.196,107,75,99.775,75,87.665v-68.4C75,7.042,83.196,0,97.456,0h37.11
	C155.696,0,157,14.686,157,19.265v68.4c0,12.11-8.175,19.335-22.434,19.335H97.456z"/>
<path fill="#222222" d="M23.236,107C8.977,107,0,99.775,0,87.665V63h2.517C1.17,60,0,56.806,0,53.285v-34.02
	C0,7.042,8.977,0,23.236,0h37.111C81.477,0,83,14.686,83,19.265V44h-1.886C82.429,47,83,49.838,83,53.285v34.38
	C83,99.775,74.606,107,60.347,107H23.236z"/>
<g>
	<g>
		<path fill="#FFFFFF" d="M60.347,7.745H23.236c-9.849,0-14.772,3.842-14.772,11.52v34.02c0,7.681,4.923,11.52,14.772,11.52h22.158
			v11.52h-7.206v-5.76H8.464v17.1c0,7.56,4.923,11.34,14.772,11.34h37.111c9.846,0,14.772-3.78,14.772-11.34v-34.38
			c0-7.56-4.926-11.34-14.772-11.34H38.189v-11.34h7.206v5.58h29.725v-16.92C75.119,11.587,70.193,7.745,60.347,7.745z
			 M97.455,99.005h37.111c9.846,0,14.772-3.78,14.772-11.34v-32.94h-29.725v21.6h-7.206v-45.72h7.206v15.66h29.725v-27
			c0-7.678-4.926-11.52-14.772-11.52H97.455c-9.849,0-14.772,3.842-14.772,11.52v68.4C82.683,95.225,87.606,99.005,97.455,99.005z
			 M171.674,99.005h37.111c9.846,0,14.772-3.78,14.772-11.34v-68.4c0-7.678-4.926-11.52-14.772-11.52h-37.111
			c-9.849,0-14.772,3.842-14.772,11.52v68.4C156.902,95.225,161.825,99.005,171.674,99.005z M186.627,30.605h7.206v45.72h-7.206
			V30.605z M235.985,87.665c0,7.56,4.923,11.34,14.772,11.34h37.111c9.846,0.118,14.772-3.659,14.772-11.34v-45.72h-29.544v34.38
			h-7.386v-40.14h36.931v-22.68H265.71v-5.76h-29.725v5.76h-7.386v22.68h7.386V87.665z M315.07,87.665
			c0,7.56,4.923,11.34,14.772,11.34h37.111c9.846,0.118,14.772-3.659,14.772-11.34v-45.72h-29.544v34.38h-7.386v-40.14h36.93v-22.68
			h-36.93v-5.76H315.07v5.76h-7.386v22.68h7.386V87.665z M186.911,119.588c0-3.24-1.742-6.058-5.224-8.46
			c-3.124-2.039-6.367-3.06-9.728-3.06c-6.485,0-10.75,0.242-12.79,0.72c-4.324,0.841-7.927,2.88-10.809,6.12
			c-3.124-4.559-7.566-6.84-13.331-6.84c-11.29,0-18.676,1.921-22.158,5.76v-5.76H83.145v91.26h29.725v-68.4h7.206v68.4H149.8v-68.4
			h7.566v85.5c0,3.119,1.74,5.878,5.224,8.28c3.122,2.039,6.364,3.06,9.728,3.06h51.883v-22.68h-37.291V119.588z M246.359,108.068
			h-37.111c-9.849,0-14.772,3.842-14.772,11.52v68.4c0,7.56,4.923,11.34,14.772,11.34h37.111c9.846,0,14.772-3.78,14.772-11.34
			v-68.4C261.131,111.91,256.206,108.068,246.359,108.068z M231.407,176.648h-7.206v-45.72h7.206V176.648z M320.578,108.068h-51.883
			v91.26h29.724v-34.2h7.206v34.2h29.725v-36.9c0-3.718-2.463-6.66-7.386-8.82c4.923-2.039,7.386-4.978,7.386-8.82v-25.2
			C335.351,111.91,330.425,108.068,320.578,108.068z M305.626,142.268h-7.206v-11.34h7.206V142.268z M409.57,163.148
			c0-4.559-2.463-7.74-7.386-9.54c4.923-1.8,7.386-4.978,7.386-9.54v-24.48c0-7.678-4.926-11.52-14.772-11.52h-51.883v91.26h29.725
			v-34.2h7.206v51.3c0,3.119,1.74,5.878,5.224,8.28c3.122,2.039,6.364,3.06,9.728,3.06h51.883v-22.68H409.57V163.148z
			 M379.845,142.268h-7.206v-11.34h7.206V142.268z M417.134,130.928h29.725v-22.86h-29.725V130.928z M417.134,199.328h29.725v-62.82
			h-29.725V199.328z M506.126,108.068h-37.111c-9.849,0-14.772,3.842-14.772,11.52v34.02c0,7.681,4.923,11.52,14.772,11.52h22.158
			v11.52h-7.206v-5.76h-29.725v17.1c0,7.56,4.923,11.34,14.772,11.34h37.111c9.846,0.118,14.772-3.659,14.772-11.34v-34.38
			c0-7.56-4.926-11.34-14.772-11.34h-22.158v-11.34h7.206v5.58h29.725v-16.92C520.898,111.91,515.972,108.068,506.126,108.068z
			 M580.345,108.068h-37.111c-9.849,0-14.772,3.842-14.772,11.52v68.4c0,7.56,4.923,11.34,14.772,11.34h37.111
			c9.846,0,14.772-3.78,14.772-11.34v-68.4C595.117,111.91,590.191,108.068,580.345,108.068z M565.393,176.648h-7.206v-45.72h7.206
			V176.648z M664.292,111.128c-3.125-2.039-6.367-3.06-9.728-3.06c-9.849,0-17.235,1.921-22.158,5.76v-5.76h-29.725v91.26h29.725
			v-68.4h7.206v68.4h29.724v-79.74C669.336,116.23,667.653,113.409,664.292,111.128z"/>
	</g>
</g>
<g>
</g>
<g>
</g>
<g>
</g>
<g>
</g>
<g>
</g>
<g>
</g>
<g>
</g>
<g>
</g>
<g>
</g>
<g>
</g>
<g>
</g>
<g>
</g>
<g>
</g>
<g>
</g>
<g>
</g>
</svg>
