<?xml version="1.0" encoding="utf-8"?>
<!-- Generator: Adobe Illustrator 20.0.0, SVG Export Plug-In . SVG Version: 6.00 Build 0)  -->
<svg version="1.1" id="Layer_1" xmlns="http://www.w3.org/2000/svg" xmlns:xlink="http://www.w3.org/1999/xlink" x="0px" y="0px"
	 width="344.444px" height="343.953px" viewBox="0 0 344.444 343.953" style="enable-background:new 0 0 344.444 343.953;"
	 xml:space="preserve">
<style type="text/css">
	.st0{fill:#FFFFFF;}
</style>
<g>
	<path class="st0" d="M0,170.708C2.494,78.394,72.559-0.57,173.999,0.003c92.926,0.525,171.496,72.866,170.434,174.254
		c-0.975,93.109-72.956,169.923-172.973,169.695C78.071,343.74,1.711,271.267,0,170.708z M171.294,321.511
		c87.454,0.134,149.984-69.662,150.607-147.647C322.608,85.24,252.38,23.235,174.026,22.6
		C86.775,21.892,23.365,92.145,23.12,170.928C22.851,257.702,91.495,320.473,171.294,321.511z"/>
	<path class="st0" d="M170.802,256.518c24.663-0.528,44.812-8.865,61.66-25.009c12.919-12.378,24.111-26.18,33.65-41.352
		c2.174-3.458,2.19-6.041-0.732-8.798c-2.059-1.943-4.06-3.958-5.967-6.05c-3.172-3.479-4.777-7.561-4.43-12.339
		c0.352-4.848,2.202-8.736,6.976-10.608c4.659-1.827,8.411-0.107,11.718,3.235c8.576,8.667,17.723,16.591,28.313,22.807
		c5.031,2.953,6.771,7.919,5.103,12.284c-2.038,5.334-8.289,9.179-13.94,8.53c-0.988-0.113-1.966-0.37-2.931-0.626
		c-8.854-2.358-8.88-2.377-13.219,5.998c-9.549,18.431-20.88,35.707-35.346,50.603c-24.752,25.487-54.672,31.984-88.48,22.535
		c-18.219-5.092-35.475-12.587-52.071-21.546c-4.42-2.386-6.993-2.303-9.777,2.124c-2.857,4.542-7.063,7.471-12.897,7.17
		c-7.75-0.4-12.517-6.575-9.775-13.793c4.689-12.341,8.724-24.801,10.892-37.859c0.68-4.092,3.456-6.773,7.558-7.814
		c4.557-1.156,8.32,0.666,11.241,3.855c3.505,3.828,5.357,8.402,4.132,13.794c-0.368,1.621-0.498,3.295-0.814,4.93
		c-1.721,8.905-1.232,9.466,7.126,12.698c17.761,6.867,35.777,12.69,54.841,14.62C166.443,256.193,169.264,256.389,170.802,256.518z
		"/>
	<path class="st0" d="M80.834,113.64c0.363-8.209,0.803-14.472,3.769-20.3c4.703-9.242,12.914-11.262,21.583-5.55
		c9.613,6.333,15.419,15.557,19.576,25.808c3.999,9.862,6.946,20.08,7.826,30.848c0.641,7.832-0.322,15.374-3.225,22.501
		c-4.334,10.641-16.213,12.577-25.103,4.244c-13.727-12.867-20.404-29.284-23.198-47.509
		C81.459,119.75,80.526,115.811,80.834,113.64z"/>
	<path class="st0" d="M229.646,119.926c-0.614,5.809-0.996,11.461-3.246,16.767c-4.251,10.028-12.96,12.801-22.387,7.153
		c-5-2.995-8.692-7.359-11.72-12.086c-10.77-16.812-16.33-35.182-15.186-55.298c0.237-4.17,1.498-8.165,3.318-11.955
		c4.506-9.379,12.516-11.802,21.449-6.438c6.482,3.892,10.742,9.829,14.594,16.105C225.118,88.266,228.921,103.759,229.646,119.926z
		"/>
</g>
</svg>
