<?xml version="1.0" encoding="utf-8"?>
<!-- Generator: Adobe Illustrator 20.0.0, SVG Export Plug-In . SVG Version: 6.00 Build 0)  -->
<svg version="1.1" id="Layer_1" xmlns="http://www.w3.org/2000/svg" xmlns:xlink="http://www.w3.org/1999/xlink" x="0px" y="0px"
	 width="663px" height="254.255px" viewBox="0 0 663 254.255" enable-background="new 0 0 663 254.255" xml:space="preserve">
<polygon fill="#222222" points="598,225.255 598,118.255 644,118.255 644,187.255 663,187.255 663,225.255 "/>
<polygon fill="#222222" points="561,254.255 561,118.255 607,118.255 607,215.255 651,215.255 651,254.255 "/>
<path fill="#222222" d="M507.778,225.255c-14.259,0-22.778-6.901-22.778-19.012v-87.988h83v87.988
	c0,12.11-8.851,19.012-23.11,19.012H507.778z"/>
<path fill="#222222" d="M411,225.255v-130h46v23h13.67c21.13,0,22.33,15.009,22.33,19.588v68.4c0,12.11-8.07,19.012-22.33,19.012
	H411z"/>
<path fill="#222222" d="M337,225.255v-107h45v1.556c4-0.995,9.009-1.487,14.305-1.487c4.923,0,9.74,1.467,14.174,4.359l0.046,0.081
	c7.067,4.798,8.476,10.849,8.476,15.079v87.412H337z"/>
<path fill="#222222" d="M321.332,254.255c-4.926,0-9.671-1.583-14.103-4.479l-0.354-0.167c-7.178-4.946-8.874-10.873-8.874-14.926
	v-9.428h-37v-107h60.332c14.259,0,22.668,7.365,22.668,19.588v24.48c0,3.574-0.942,6.804-2.719,9.54
	c1.776,2.736,2.719,5.966,2.719,9.54v33.852h37v39H321.332z"/>
<path fill="#222222" d="M210.002,225.255c-14.259,0-23.002-6.901-23.002-19.012v-87.988h83v87.988
	c0,12.11-8.628,19.012-22.888,19.012H210.002z"/>
<path fill="#222222" d="M172.796,225.255h-37.015c-14.259,0-22.781-6.901-22.781-19.012v-42.988h-7v-39h7v-6h46v6h37v81.988
	c0,7.888-3.767,12.392-6.785,14.781c-3.824,3.026-9.194,4.398-15.793,4.398C173.421,225.422,172.796,225.255,172.796,225.255z"/>
<path fill="#222222" d="M546.381,135.255c-4.927,0-9.672-1.245-14.103-4.141l-0.378,0.002c-7.179-4.946-8.9-10.704-8.9-14.756
	v-9.105h-74v-107h46v0.992C499,0.408,503.658,0,509.124,0c5.287,0,9.957,1.409,13.858,4.132c2.604-1.532,5.469-2.615,8.589-3.237
	C533.454,0.471,536.854,0,546.025,0c4.923,0,9.665,1.467,14.098,4.359l0.185,0.115C567.482,9.426,569,15.389,569,19.52v77.735h37v38
	H546.381z"/>
<polygon fill="#222222" points="392,107.255 392,0.255 438,0.255 438,68.255 457,68.255 457,107.255 "/>
<path fill="#222222" d="M340.834,107.255c-14.259,0-22.834-7.225-22.834-19.335v-68.4c0-12.223,8.575-19.265,22.834-19.265h37.11
	C399.074,0.255,401,14.94,401,19.52v68.4c0,12.11-8.796,19.335-23.056,19.335H340.834z"/>
<path fill="#222222" d="M266.614,107.255c-14.259,0-22.614-7.225-22.614-19.335v-68.4c0-4.579,1.484-19.265,22.614-19.265h37.111
	C324.855,0.255,326,14.94,326,19.52v68.4c0,12.11-8.016,19.335-22.275,19.335H266.614z"/>
<polygon fill="#222222" points="186,107.255 186,0.255 232,0.255 232,68.255 251,68.255 251,107.255 "/>
<path fill="#222222" d="M134.568,107.255c-14.259,0-22.568-7.225-22.568-19.335V53.54c0-3.443,0.501-6.285,1.846-9.285H112V19.52
	c0-12.223,8.309-19.265,22.568-19.265h37.11C192.809,0.255,194,14.94,194,19.52v87.735H134.568z"/>
<path fill="#222222" d="M97.638,135.255c-4.926,0-9.671-1-14.103-4h-0.007c-7.178-5-8.527-10.843-8.527-14.895v-9.105H0v-107h46
	v0.992C50,0.408,54.787,0,60.253,0c5.287,0,10.02,1.409,13.921,4.132c2.605-1.532,5.502-2.615,8.622-3.237
	C84.679,0.47,88.095,0,97.266,0c4.923,0,9.673,1.467,14.106,4.36l0.058,0.114c7.176,4.95,8.57,10.914,8.57,15.045v77.735h38v38
	H97.638z"/>
<g>
	<g>
		<path fill="#FFFFFF" d="M134.568,99.26h51.883V19.52c0-7.678-4.926-11.52-14.772-11.52h-37.111
			c-9.849,0-14.772,3.842-14.772,11.52v16.92h29.725v-5.58h7.206V42.2h-22.158c-9.849,0.121-14.772,3.901-14.772,11.34v34.38
			C119.795,95.48,124.719,99.26,134.568,99.26z M149.52,65.06h7.206v11.52h-7.206V65.06z M243.015,76.58h-19.276V8h-29.725v91.26h49
			V76.58z M318.497,87.92V54.98h-29.725v21.6h-7.206V30.86h7.206v15.66h29.725v-27c0-7.678-4.926-11.52-14.772-11.52h-37.111
			c-9.849,0-14.772,3.842-14.772,11.52v68.4c0,7.56,4.923,11.34,14.772,11.34h37.111C313.571,99.26,318.497,95.48,318.497,87.92z
			 M340.834,99.26h37.111c9.846,0,14.772-3.78,14.772-11.34v-68.4c0-7.678-4.926-11.52-14.772-11.52h-37.111
			c-9.849,0-14.772,3.842-14.772,11.52v68.4C326.061,95.48,330.984,99.26,340.834,99.26z M355.786,30.86h7.206v45.72h-7.206V30.86z
			 M449.281,76.58h-19.276V8H400.28v91.26h49V76.58z M150.734,126.323h-1.213V105.02H112.23v-85.5c0-3.24-1.742-6.058-5.224-8.46
			C103.881,9.021,100.638,8,97.278,8c-6.485,0-10.75,0.242-12.791,0.72c-4.324,0.841-7.927,2.88-10.809,6.12
			C70.554,10.281,66.112,8,60.347,8c-11.29,0-18.676,1.921-22.158,5.76V8H8.464v91.26h29.725v-68.4h7.206v68.4h29.725v-68.4h7.566
			v85.5c0,3.119,1.74,5.878,5.224,8.28c3.122,2.039,6.364,3.06,9.728,3.06h23.371v4.383h-7.386v22.68h7.386v51.48
			c0,7.56,4.923,11.34,14.772,11.34h37.111c9.846,0.118,14.772-3.659,14.772-11.34v-45.72H158.12v34.38h-7.386v-40.14h36.93v-22.68
			h-36.93V126.323z M232.16,194.903h-7.206v-68.58h-29.725v79.92c0,7.56,4.923,11.34,14.772,11.34h37.111
			c9.846,0,14.772-3.78,14.772-11.34v-79.92H232.16V194.903z M336.104,181.403c0-4.559-2.463-7.74-7.386-9.54
			c4.923-1.8,7.386-4.978,7.386-9.54v-24.48c0-7.678-4.926-11.52-14.772-11.52h-51.883v91.26h29.725v-34.2h7.206v51.3
			c0,3.119,1.74,5.878,5.224,8.28c3.122,2.039,6.364,3.06,9.728,3.06h51.883v-22.68h-37.111V181.403z M306.379,160.523h-7.206
			v-11.34h7.206V160.523z M406.179,129.383c-3.125-2.039-6.367-3.06-9.728-3.06c-9.849,0-17.235,1.921-22.158,5.76v-5.76h-29.725
			v91.26h29.725v-68.4h7.206v68.4h29.725v-79.74C411.224,134.485,409.54,131.664,406.179,129.383z M470.67,126.323h-22.158v-22.86
			h-29.725v114.12h51.883c9.846,0,14.772-3.78,14.772-11.34v-68.4C485.443,130.165,480.517,126.323,470.67,126.323z
			 M455.718,194.903h-7.206v-45.72h7.206V194.903z M598.752,126.323h-0.488V105.02h-37.291v-85.5c0-3.24-1.742-6.058-5.224-8.46
			C552.624,9.021,549.382,8,546.021,8c-6.485,0-10.75,0.242-12.791,0.72c-4.324,0.841-7.927,2.88-10.809,6.12
			C519.297,10.281,514.855,8,509.09,8c-11.29,0-18.676,1.921-22.158,5.76V8h-29.725v91.26h29.725v-68.4h7.206v68.4h29.725v-68.4
			h7.566v85.5c0,3.119,1.74,5.878,5.224,8.28c1.036,0.677,2.087,1.231,3.15,1.683h-9.866v68.58h-7.206v-68.58h-29.725v79.92
			c0,7.56,4.923,11.34,14.772,11.34h37.111c9.846,0,14.772-3.78,14.772-11.34V127.7h9.365v118.323h74.221v-22.68h-44.497V126.323z
			 M635.861,194.903v-68.58h-29.725v91.26h49.001v-22.68H635.861z"/>
	</g>
</g>
<g>
</g>
<g>
</g>
<g>
</g>
<g>
</g>
<g>
</g>
<g>
</g>
<g>
</g>
<g>
</g>
<g>
</g>
<g>
</g>
<g>
</g>
<g>
</g>
<g>
</g>
<g>
</g>
<g>
</g>
</svg>
